<svg width="460" height="135" viewBox="0 0 460 135" fill="none" xmlns="http://www.w3.org/2000/svg">
<rect width="460" height="135" fill="white"/>
<path d="M90.4968 87.5881C84.5131 85.3656 78.3585 85.0238 72.7167 86.5624C68.7846 87.5882 65.0234 89.6397 61.6042 92.2041L59.2107 94.2557L58.5269 94.9395L60.0655 96.3072C60.2365 96.3072 60.2365 96.4782 60.4074 96.6492C60.7494 96.9911 61.0913 97.1621 61.6042 97.504L62.6299 98.1878L63.6557 97.333C63.8267 97.162 64.1686 96.8201 64.5105 96.6492C67.5878 94.0847 71.0071 92.3751 74.5973 91.5203C79.2133 90.3236 84.1712 90.4945 89.1291 92.3751C93.2322 93.9138 101.609 95.7944 111.696 91.5203L112.038 91.3493L112.551 90.8365C112.551 90.6655 112.722 90.6655 112.893 90.4945C113.748 89.4687 114.602 88.443 115.286 87.2462L118.706 81.9464L113.235 85.0237C105.2 89.4687 97.8482 90.3235 90.4968 87.5881Z" fill="#121212"/>
<path d="M67.075 69.1239C71.691 67.9272 76.6489 68.0981 81.6068 69.9787C87.0776 72.0302 101.097 74.9366 116.825 60.7468L119.389 58.1823L119.56 58.0113L120.244 57.3275L119.902 56.4727C119.731 55.7889 119.389 54.9341 119.048 54.0792L118.193 51.6857L116.483 53.3954C116.312 53.7373 115.97 53.9082 115.628 54.2502C108.106 61.9435 96.4805 69.8077 83.1455 65.0208C77.1618 62.7983 71.0072 62.4564 65.3654 63.995C59.8946 65.5337 55.1077 68.44 50.6627 72.5431V72.3722L48.0982 75.1076C48.0982 75.2785 47.9273 75.2785 47.7563 75.4495L47.2434 75.9624L47.4144 76.6462C47.5853 77.501 47.9273 78.3558 48.0982 79.2106L49.124 81.946L50.8336 79.7236C51.0046 79.3816 51.3465 79.2107 51.5175 78.8688C55.1077 75.6205 60.0656 71.0045 67.075 69.1239Z" fill="#121212"/>
<path d="M50.4917 66.0465C54.4238 61.9435 58.8688 59.379 63.6557 58.0113C68.2717 56.8146 73.2296 56.9855 78.1875 58.8661C93.5741 64.5079 106.909 55.2759 112.722 50.318L114.944 48.0955L115.799 47.4116L115.115 46.3859C114.602 45.873 114.261 45.1892 113.748 44.5053L112.722 43.1376L111.525 44.3343C111.354 44.5053 111.012 44.8472 110.841 45.0182C103.661 51.8567 92.5483 58.8661 79.8971 54.0792C73.9135 51.8567 67.7588 51.5147 62.1171 53.0534C58.5269 54.0792 55.1076 55.7888 51.6884 58.0113L48.0982 60.9177C47.7562 61.2596 47.5853 61.4306 47.2434 61.7725L46.9015 62.1144V62.6273C46.7305 63.824 46.7305 65.0208 46.5595 66.0465L46.3885 70.3206L49.2949 67.2432C49.6369 66.9013 49.9788 66.3885 50.4917 66.0465Z" fill="#121212"/>
<path d="M95.4545 99.2131L95.1125 100.239L95.4545 99.2131C94.9416 99.0421 94.5997 98.8711 94.0868 98.7001C88.1031 96.4776 81.9484 96.1358 76.3067 97.6744C75.1099 98.0163 73.9132 98.3582 72.7165 98.8711L68.6134 100.752L67.5876 101.265L71.0069 102.461C72.0327 102.803 73.0584 103.145 74.0842 103.487L74.5971 103.658L75.11 103.487C75.6229 103.316 76.1357 102.974 76.6486 102.974C76.9905 102.974 77.3325 102.803 77.6744 102.632C81.7775 101.607 86.2225 101.607 91.0094 103.145C91.5223 103.316 91.8643 103.487 92.3772 103.658L93.232 104L93.7448 103.829C94.9416 103.487 96.3093 103.145 97.335 102.632L102.122 100.923L97.1641 99.7259C96.6512 99.555 95.9673 99.384 95.4545 99.2131Z" fill="#121212"/>
<path d="M121.611 63.8251L119.047 66.3895C118.705 66.7314 118.363 67.0734 118.021 67.4153C111.012 74.0828 99.7283 81.2632 87.0771 76.4763C81.0935 74.2538 74.9388 73.9119 69.2971 75.4505C63.9973 76.9892 59.2103 79.7246 54.9362 83.8277L52.7137 86.2211L52.0299 87.0759L52.7137 88.1017C53.2266 88.7856 53.5686 89.2985 53.9105 89.9823L54.9362 91.521L56.133 89.9823C56.304 89.8113 56.6459 89.4694 56.8168 89.2984C60.9199 84.8534 65.3649 82.118 70.4938 80.7503C75.1098 79.5536 80.0677 79.7245 85.0256 81.6051C89.2996 83.1438 93.7447 83.6567 98.1897 83.1438C106.054 82.289 113.918 77.844 119.731 72.8861C120.073 72.5442 120.415 72.3732 120.757 72.0313L121.27 71.5184V71.0055C121.27 69.9797 121.441 68.783 121.441 67.7572L121.611 63.8251Z" fill="#121212"/>
<path d="M56.6466 48.0969L56.1338 47.0711L56.6466 48.0969C57.6724 47.584 58.8692 47.242 59.895 46.9001C64.5109 45.7034 69.4688 45.8744 74.4267 47.7549C77.675 48.9517 80.9233 49.4646 84.5135 49.4646C91.6939 49.4646 98.8743 46.9001 105.542 41.9422L108.106 39.8907L108.961 39.2068L107.422 38.0101C106.91 37.4972 106.226 36.9843 105.542 36.6424L104.516 35.9586L103.661 36.6424C103.319 36.8134 103.148 37.1553 102.806 37.3262C93.7454 44.1647 84.6845 46.0453 76.1364 42.797C69.9817 40.5745 63.8271 40.0616 57.6724 41.9422C57.1595 42.1132 56.6466 42.2841 55.9628 42.4551L55.6209 42.6261L55.108 43.1389C55.108 43.3099 54.9371 43.3099 54.7661 43.4809C54.0822 44.5067 53.2274 45.3615 52.5436 46.3873L49.2953 51.3451L54.5951 48.6097C55.4499 48.6097 56.1338 48.2678 56.6466 48.0969Z" fill="#121212"/>
<path d="M70.6651 36.4708L71.178 36.6417C73.4005 37.4965 76.8198 38.3514 81.0938 38.3514C85.5389 38.3514 89.8129 37.3256 94.087 35.6159L99.3868 33.0515L95.7966 31.8548C94.7708 31.5129 93.745 31.171 92.5483 31H92.0354L91.5225 31.1709C91.0097 31.3419 90.4967 31.6838 89.9838 31.8548C84.855 33.7354 79.7261 34.0773 74.7682 32.7096C74.2553 32.5387 73.7425 32.3677 73.2296 32.1967L72.7167 32.0257L72.2038 32.1967C71.178 32.5386 70.1523 32.8806 69.1265 33.3935L65.1943 35.1031L69.2975 36.2998C69.6394 36.1288 70.1523 36.2998 70.6651 36.4708Z" fill="#121212"/>
<path d="M152.283 91H136.987V44.728H152.027C165.851 44.728 175.195 54.072 175.195 67.896C175.195 81.656 165.979 91 152.283 91ZM151.579 50.488H143.259V85.176H151.835C162.139 85.176 168.667 78.52 168.667 67.896C168.667 57.144 162.139 50.488 151.579 50.488ZM191.303 91.768C184.583 91.768 180.615 87.992 180.615 82.296C180.615 76.536 184.903 72.952 192.263 72.376L202.119 71.608V70.712C202.119 65.464 198.983 63.608 194.759 63.608C189.703 63.608 186.823 65.848 186.823 69.624H181.575C181.575 63.096 186.951 58.808 195.015 58.808C202.759 58.808 208.007 62.904 208.007 71.352V91H202.887L202.247 85.944C200.647 89.528 196.359 91.768 191.303 91.768ZM193.031 87.096C198.727 87.096 202.183 83.384 202.183 77.496V75.832L194.183 76.472C188.871 76.984 186.695 79.032 186.695 82.104C186.695 85.432 189.127 87.096 193.031 87.096ZM219.282 52.28C217.106 52.28 215.314 50.488 215.314 48.312C215.314 46.072 217.106 44.344 219.282 44.344C221.458 44.344 223.25 46.072 223.25 48.312C223.25 50.488 221.458 52.28 219.282 52.28ZM216.338 91V59.704H222.354V91H216.338ZM237.232 91H231.216V43.896H237.232V91ZM243.08 105.016V100.088H247.112C249.992 100.088 252.296 99.64 253.768 95.672L254.856 92.664L242.248 59.704H248.584L257.672 84.92L266.952 59.704H273.16L258.376 98.04C256.264 103.416 253.128 105.656 248.328 105.656C246.344 105.656 244.68 105.4 243.08 105.016ZM303.435 71.352H285.259V91H278.987V44.728H306.891V50.488H285.259V65.656H303.435V71.352ZM319.607 91H313.591V43.896H319.607V91ZM326.415 75.32C326.415 65.656 333.327 58.872 342.735 58.872C352.079 58.872 358.991 65.656 358.991 75.32C358.991 84.984 352.079 91.768 342.735 91.768C333.327 91.768 326.415 84.984 326.415 75.32ZM332.495 75.32C332.495 81.848 336.655 86.392 342.735 86.392C348.751 86.392 352.975 81.848 352.975 75.32C352.975 68.792 348.751 64.248 342.735 64.248C336.655 64.248 332.495 68.792 332.495 75.32ZM370.933 91L360.693 59.704H366.901L372.085 75.96C372.789 78.264 373.429 80.632 374.005 83.384C374.517 80.632 375.349 78.008 376.053 75.96L381.301 59.704H387.445L392.629 75.96C393.141 77.496 394.165 81.144 394.677 83.384C395.189 80.888 395.765 78.712 396.661 75.96L401.909 59.704H408.181L397.493 91H391.797L386.357 74.232C385.333 71.096 384.693 68.664 384.373 66.936C384.053 68.472 383.477 70.52 382.325 74.296L376.885 91H370.933Z" fill="#121212"/>
</svg>
