<svg width="128" height="25" viewBox="0 0 128 25" fill="none" xmlns="http://www.w3.org/2000/svg">
<path d="M12.9001 16.8751C11.1501 16.2251 9.35006 16.1251 7.70006 16.5751C6.55006 16.8751 5.45006 17.4751 4.45006 18.2251L3.75005 18.8251L3.55005 19.0251L4.00005 19.4251C4.05005 19.4251 4.05005 19.4751 4.10005 19.5251C4.20005 19.6251 4.30006 19.6751 4.45006 19.7751L4.75005 19.9751L5.05005 19.7251C5.10005 19.6751 5.20005 19.5751 5.30005 19.5251C6.20005 18.7751 7.20005 18.2751 8.25005 18.0251C9.60005 17.6751 11.05 17.7251 12.5 18.2751C13.7 18.7251 16.1501 19.2751 19.1001 18.0251L19.2001 17.9751L19.3501 17.8251C19.3501 17.7751 19.4001 17.7751 19.4501 17.7251C19.7001 17.4251 19.9501 17.1251 20.1501 16.7751L21.1501 15.2251L19.55 16.1251C17.2 17.4251 15.0501 17.6751 12.9001 16.8751Z" fill="#121212"/>
<path d="M6.05 11.475C7.4 11.125 8.85 11.175 10.3 11.725C11.9 12.325 16 13.175 20.6 9.02501L21.35 8.27501L21.4 8.22501L21.6 8.02501L21.5 7.77501C21.45 7.57501 21.35 7.32501 21.25 7.07501L21 6.375L20.5 6.875C20.45 6.975 20.35 7.025 20.25 7.125C18.05 9.375 14.65 11.675 10.75 10.275C9 9.62501 7.2 9.52501 5.55 9.97501C3.95 10.425 2.55 11.275 1.25 12.475V12.425L0.5 13.225C0.5 13.275 0.450009 13.275 0.400009 13.325L0.25 13.475L0.300003 13.675C0.350003 13.925 0.45 14.175 0.5 14.425L0.800003 15.225L1.3 14.575C1.35 14.475 1.45 14.425 1.5 14.325C2.55 13.375 4 12.025 6.05 11.475Z" fill="#121212"/>
<path d="M1.20001 10.575C2.35001 9.37501 3.65 8.62501 5.05 8.22501C6.4 7.87501 7.85 7.92501 9.3 8.47501C13.8 10.125 17.7 7.42501 19.4 5.97501L20.05 5.32501L20.3 5.125L20.1 4.82501C19.95 4.67501 19.85 4.47501 19.7 4.27501L19.4 3.875L19.05 4.22501C19 4.27501 18.9 4.375 18.85 4.425C16.75 6.425 13.5 8.47501 9.8 7.07501C8.05 6.42501 6.25001 6.32501 4.60001 6.77501C3.55001 7.07501 2.55 7.57501 1.55 8.22501L0.5 9.07501C0.4 9.17501 0.35 9.22501 0.25 9.32501L0.150009 9.425V9.57501C0.100009 9.92501 0.100003 10.275 0.0500031 10.575L0 11.825L0.850006 10.925C0.950006 10.825 1.05001 10.675 1.20001 10.575Z" fill="#121212"/>
<path d="M14.3499 20.275L14.2499 20.575L14.3499 20.275C14.1999 20.225 14.1 20.175 13.95 20.125C12.2 19.475 10.3999 19.375 8.74994 19.825C8.39994 19.925 8.04995 20.025 7.69995 20.175L6.49994 20.725L6.19995 20.875L7.19995 21.225C7.49995 21.325 7.79995 21.425 8.09995 21.525L8.24994 21.575L8.39995 21.525C8.54995 21.475 8.69994 21.375 8.84995 21.375C8.94994 21.375 9.04995 21.325 9.14995 21.275C10.3499 20.975 11.6499 20.975 13.0499 21.425C13.1999 21.475 13.3 21.525 13.45 21.575L13.7 21.675L13.8499 21.625C14.1999 21.525 14.5999 21.425 14.8999 21.275L16.2999 20.775L14.8499 20.425C14.6999 20.375 14.4999 20.325 14.3499 20.275Z" fill="#121212"/>
<path d="M21.9999 9.92529L21.2499 10.6753C21.1499 10.7753 21.0499 10.8753 20.9499 10.9753C18.8999 12.9253 15.5999 15.0253 11.8999 13.6253C10.1499 12.9753 8.34991 12.8753 6.69991 13.3253C5.14991 13.7753 3.74989 14.5753 2.49989 15.7753L1.8499 16.4753L1.6499 16.7253L1.8499 17.0253C1.9999 17.2253 2.09991 17.3753 2.19991 17.5753L2.49989 18.0253L2.8499 17.5753C2.8999 17.5253 2.9999 17.4253 3.0499 17.3753C4.2499 16.0753 5.5499 15.2753 7.0499 14.8753C8.3999 14.5253 9.8499 14.5753 11.2999 15.1253C12.5499 15.5753 13.8499 15.7253 15.1499 15.5753C17.4499 15.3253 19.7499 14.0253 21.4499 12.5753C21.5499 12.4753 21.6499 12.4253 21.7499 12.3253L21.8999 12.1753V12.0253C21.8999 11.7253 21.9499 11.3753 21.9499 11.0753L21.9999 9.92529Z" fill="#121212"/>
<path d="M3.00009 5.32539L2.8501 5.02539L3.00009 5.32539C3.30009 5.17539 3.6501 5.07539 3.9501 4.97539C5.3001 4.62539 6.7501 4.67539 8.2001 5.22539C9.1501 5.57539 10.1001 5.72539 11.1501 5.72539C13.2501 5.72539 15.3501 4.97539 17.3001 3.52539L18.0501 2.92538L18.3001 2.72539L17.8501 2.37538C17.7001 2.22538 17.5001 2.07539 17.3001 1.97539L17.0001 1.77539L16.7501 1.97539C16.6501 2.02539 16.6001 2.12538 16.5001 2.17538C13.8501 4.17538 11.2001 4.72539 8.7001 3.77539C6.9001 3.12539 5.10009 2.97539 3.30009 3.52539C3.15009 3.57539 3.00009 3.62538 2.80009 3.67538L2.7001 3.72539L2.55009 3.87538C2.55009 3.92538 2.5001 3.92539 2.4501 3.97539C2.2501 4.27539 2.00009 4.52539 1.80009 4.82539L0.850098 6.27539L2.4001 5.47539C2.6501 5.47539 2.85009 5.37539 3.00009 5.32539Z" fill="#121212"/>
<path d="M7.10001 1.92519L7.25 1.97519C7.9 2.22519 8.90001 2.47519 10.15 2.47519C11.45 2.47519 12.7 2.17519 13.95 1.67519L15.5 0.925186L14.45 0.575195C14.15 0.475195 13.85 0.375195 13.5 0.325195H13.35L13.2 0.375183C13.05 0.425183 12.9 0.525195 12.75 0.575195C11.25 1.1252 9.75 1.2252 8.3 0.825195C8.15 0.775195 8.00001 0.725186 7.85001 0.675186L7.70001 0.625183L7.55 0.675186C7.25 0.775186 6.95001 0.875192 6.65001 1.02519L5.5 1.52519L6.70001 1.87518C6.80001 1.82518 6.95001 1.87519 7.10001 1.92519Z" fill="#121212"/>
<path d="M39.106 19H33.848V3.094H39.018C43.77 3.094 46.982 6.306 46.982 11.058C46.982 15.788 43.814 19 39.106 19ZM38.864 5.074H36.004V16.998H38.952C42.494 16.998 44.738 14.71 44.738 11.058C44.738 7.362 42.494 5.074 38.864 5.074ZM52.519 19.264C50.209 19.264 48.845 17.966 48.845 16.008C48.845 14.028 50.319 12.796 52.849 12.598L56.237 12.334V12.026C56.237 10.222 55.159 9.584 53.707 9.584C51.969 9.584 50.979 10.354 50.979 11.652H49.175C49.175 9.408 51.023 7.934 53.795 7.934C56.457 7.934 58.261 9.342 58.261 12.246V19H56.501L56.281 17.262C55.731 18.494 54.257 19.264 52.519 19.264ZM53.113 17.658C55.071 17.658 56.259 16.382 56.259 14.358V13.786L53.509 14.006C51.683 14.182 50.935 14.886 50.935 15.942C50.935 17.086 51.771 17.658 53.113 17.658ZM62.1369 5.69C61.3889 5.69 60.7729 5.074 60.7729 4.326C60.7729 3.556 61.3889 2.962 62.1369 2.962C62.8849 2.962 63.5009 3.556 63.5009 4.326C63.5009 5.074 62.8849 5.69 62.1369 5.69ZM61.1249 19V8.242H63.1929V19H61.1249ZM68.3072 19H66.2392V2.808H68.3072V19ZM70.3175 23.818V22.124H71.7035C72.6935 22.124 73.4855 21.97 73.9915 20.606L74.3655 19.572L70.0315 8.242H72.2095L75.3335 16.91L78.5235 8.242H80.6575L75.5755 21.42C74.8495 23.268 73.7715 24.038 72.1215 24.038C71.4395 24.038 70.8675 23.95 70.3175 23.818ZM91.0645 12.246H84.8165V19H82.6605V3.094H92.2525V5.074H84.8165V10.288H91.0645V12.246ZM96.6236 19H94.5556V2.808H96.6236V19ZM98.9639 13.61C98.9639 10.288 101.34 7.956 104.574 7.956C107.786 7.956 110.162 10.288 110.162 13.61C110.162 16.932 107.786 19.264 104.574 19.264C101.34 19.264 98.9639 16.932 98.9639 13.61ZM101.054 13.61C101.054 15.854 102.484 17.416 104.574 17.416C106.642 17.416 108.094 15.854 108.094 13.61C108.094 11.366 106.642 9.804 104.574 9.804C102.484 9.804 101.054 11.366 101.054 13.61ZM114.267 19L110.747 8.242H112.881L114.663 13.83C114.905 14.622 115.125 15.436 115.323 16.382C115.499 15.436 115.785 14.534 116.027 13.83L117.831 8.242H119.943L121.725 13.83C121.901 14.358 122.253 15.612 122.429 16.382C122.605 15.524 122.803 14.776 123.111 13.83L124.915 8.242H127.071L123.397 19H121.439L119.569 13.236C119.217 12.158 118.997 11.322 118.887 10.728C118.777 11.256 118.579 11.96 118.183 13.258L116.313 19H114.267Z" fill="#121212"/>
</svg>
