<svg width="22" height="22" viewBox="0 0 22 22" fill="none" xmlns="http://www.w3.org/2000/svg">
    <path d="M22 11C22 17.0751 17.0751 22 11 22C4.92487 22 0 17.0751 0 11C0 4.92487 4.92487 0 11 0C17.0751 0 22 4.92487 22 11Z" fill="white"/>
    <path d="M12.9001 16.8751C11.1501 16.2251 9.35006 16.1251 7.70006 16.5751C6.55006 16.8751 5.45006 17.4751 4.45006 18.2251L3.75005 18.8251L3.55005 19.0251L4.00005 19.4251C4.05005 19.4251 4.05005 19.4751 4.10005 19.5251C4.20005 19.6251 4.30006 19.6751 4.45006 19.7751L4.75005 19.9751L5.05005 19.7251C5.10005 19.6751 5.20005 19.5751 5.30005 19.5251C6.20005 18.7751 7.20005 18.2751 8.25005 18.0251C9.60005 17.6751 11.05 17.7251 12.5 18.2751C13.7 18.7251 16.1501 19.2751 19.1001 18.0251L19.2001 17.9751L19.3501 17.8251C19.3501 17.7751 19.4001 17.7751 19.4501 17.7251C19.7001 17.4251 19.9501 17.1251 20.1501 16.7751L21.1501 15.2251L19.55 16.1251C17.2 17.4251 15.0501 17.6751 12.9001 16.8751Z" fill="#121212"/>
<path d="M6.05 11.475C7.4 11.125 8.85 11.175 10.3 11.725C11.9 12.325 16 13.175 20.6 9.02501L21.35 8.27501L21.4 8.22501L21.6 8.02501L21.5 7.77501C21.45 7.57501 21.35 7.32501 21.25 7.07501L21 6.375L20.5 6.875C20.45 6.975 20.35 7.025 20.25 7.125C18.05 9.375 14.65 11.675 10.75 10.275C9 9.62501 7.2 9.52501 5.55 9.97501C3.95 10.425 2.55 11.275 1.25 12.475V12.425L0.5 13.225C0.5 13.275 0.450009 13.275 0.400009 13.325L0.25 13.475L0.300003 13.675C0.350003 13.925 0.45 14.175 0.5 14.425L0.800003 15.225L1.3 14.575C1.35 14.475 1.45 14.425 1.5 14.325C2.55 13.375 4 12.025 6.05 11.475Z" fill="#121212"/>
<path d="M1.20001 10.575C2.35001 9.37501 3.65 8.62501 5.05 8.22501C6.4 7.87501 7.85 7.92501 9.3 8.47501C13.8 10.125 17.7 7.42501 19.4 5.97501L20.05 5.32501L20.3 5.125L20.1 4.82501C19.95 4.67501 19.85 4.47501 19.7 4.27501L19.4 3.875L19.05 4.22501C19 4.27501 18.9 4.375 18.85 4.425C16.75 6.425 13.5 8.47501 9.8 7.07501C8.05 6.42501 6.25001 6.32501 4.60001 6.77501C3.55001 7.07501 2.55 7.57501 1.55 8.22501L0.5 9.07501C0.4 9.17501 0.35 9.22501 0.25 9.32501L0.150009 9.425V9.57501C0.100009 9.92501 0.100003 10.275 0.0500031 10.575L0 11.825L0.850006 10.925C0.950006 10.825 1.05001 10.675 1.20001 10.575Z" fill="#121212"/>
<path d="M14.3499 20.275L14.2499 20.575L14.3499 20.275C14.1999 20.225 14.1 20.175 13.95 20.125C12.2 19.475 10.3999 19.375 8.74994 19.825C8.39994 19.925 8.04995 20.025 7.69995 20.175L6.49994 20.725L6.19995 20.875L7.19995 21.225C7.49995 21.325 7.79995 21.425 8.09995 21.525L8.24994 21.575L8.39995 21.525C8.54995 21.475 8.69994 21.375 8.84995 21.375C8.94994 21.375 9.04995 21.325 9.14995 21.275C10.3499 20.975 11.6499 20.975 13.0499 21.425C13.1999 21.475 13.3 21.525 13.45 21.575L13.7 21.675L13.8499 21.625C14.1999 21.525 14.5999 21.425 14.8999 21.275L16.2999 20.775L14.8499 20.425C14.6999 20.375 14.4999 20.325 14.3499 20.275Z" fill="#121212"/>
<path d="M21.9999 9.92529L21.2499 10.6753C21.1499 10.7753 21.0499 10.8753 20.9499 10.9753C18.8999 12.9253 15.5999 15.0253 11.8999 13.6253C10.1499 12.9753 8.34991 12.8753 6.69991 13.3253C5.14991 13.7753 3.74989 14.5753 2.49989 15.7753L1.8499 16.4753L1.6499 16.7253L1.8499 17.0253C1.9999 17.2253 2.09991 17.3753 2.19991 17.5753L2.49989 18.0253L2.8499 17.5753C2.8999 17.5253 2.9999 17.4253 3.0499 17.3753C4.2499 16.0753 5.5499 15.2753 7.0499 14.8753C8.3999 14.5253 9.8499 14.5753 11.2999 15.1253C12.5499 15.5753 13.8499 15.7253 15.1499 15.5753C17.4499 15.3253 19.7499 14.0253 21.4499 12.5753C21.5499 12.4753 21.6499 12.4253 21.7499 12.3253L21.8999 12.1753V12.0253C21.8999 11.7253 21.9499 11.3753 21.9499 11.0753L21.9999 9.92529Z" fill="#121212"/>
<path d="M3.00009 5.32539L2.8501 5.02539L3.00009 5.32539C3.30009 5.17539 3.6501 5.07539 3.9501 4.97539C5.3001 4.62539 6.7501 4.67539 8.2001 5.22539C9.1501 5.57539 10.1001 5.72539 11.1501 5.72539C13.2501 5.72539 15.3501 4.97539 17.3001 3.52539L18.0501 2.92538L18.3001 2.72539L17.8501 2.37538C17.7001 2.22538 17.5001 2.07539 17.3001 1.97539L17.0001 1.77539L16.7501 1.97539C16.6501 2.02539 16.6001 2.12538 16.5001 2.17538C13.8501 4.17538 11.2001 4.72539 8.7001 3.77539C6.9001 3.12539 5.10009 2.97539 3.30009 3.52539C3.15009 3.57539 3.00009 3.62538 2.80009 3.67538L2.7001 3.72539L2.55009 3.87538C2.55009 3.92538 2.5001 3.92539 2.4501 3.97539C2.2501 4.27539 2.00009 4.52539 1.80009 4.82539L0.850098 6.27539L2.4001 5.47539C2.6501 5.47539 2.85009 5.37539 3.00009 5.32539Z" fill="#121212"/>
<path d="M7.10001 1.92519L7.25 1.97519C7.9 2.22519 8.90001 2.47519 10.15 2.47519C11.45 2.47519 12.7 2.17519 13.95 1.67519L15.5 0.925186L14.45 0.575195C14.15 0.475195 13.85 0.375195 13.5 0.325195H13.35L13.2 0.375183C13.05 0.425183 12.9 0.525195 12.75 0.575195C11.25 1.1252 9.75 1.2252 8.3 0.825195C8.15 0.775195 8.00001 0.725186 7.85001 0.675186L7.70001 0.625183L7.55 0.675186C7.25 0.775186 6.95001 0.875192 6.65001 1.02519L5.5 1.52519L6.70001 1.87518C6.80001 1.82518 6.95001 1.87519 7.10001 1.92519Z" fill="#121212"/>
</svg>
