<svg width="22" height="22" viewBox="0 0 22 22" fill="none" xmlns="http://www.w3.org/2000/svg">
<path d="M22 11C22 17.0751 17.0751 22 11 22C4.92487 22 0 17.0751 0 11C0 4.92487 4.92487 0 11 0C17.0751 0 22 4.92487 22 11Z" fill="white"/>
<path d="M12.9001 17.0539C11.1501 16.3841 9.35006 16.2811 7.70006 16.7448C6.55006 17.0539 5.45006 17.6722 4.45006 18.445L3.75005 19.0633L3.55005 19.2694L4.00005 19.6816C4.05005 19.6816 4.05005 19.7331 4.10005 19.7846C4.20005 19.8877 4.30006 19.9392 4.45006 20.0422L4.75005 20.2483L5.05005 19.9907C5.10005 19.9392 5.20005 19.8361 5.30005 19.7846C6.20005 19.0118 7.20005 18.4966 8.25005 18.2389C9.60005 17.8783 11.05 17.9298 12.5 18.4966C13.7 18.9603 16.1501 19.527 19.1001 18.2389L19.2001 18.1874L19.3501 18.0329C19.3501 17.9813 19.4001 17.9813 19.4501 17.9298C19.7001 17.6207 19.9501 17.3115 20.1501 16.9509L21.1501 15.3537L19.55 16.2811C17.2 17.6207 15.0501 17.8783 12.9001 17.0539Z" fill="#121212"/>
<path d="M6.05 11.4895C7.4 11.1288 8.85 11.1803 10.3 11.7471C11.9 12.3653 16 13.2412 20.6 8.96488L21.35 8.19205L21.4 8.14052L21.6 7.93444L21.5 7.67682C21.45 7.47074 21.35 7.21313 21.25 6.95552L21 6.23419L20.5 6.74941C20.45 6.85246 20.35 6.90398 20.25 7.00703C18.05 9.32553 14.65 11.6956 10.75 10.2529C9 9.58315 7.2 9.4801 5.55 9.9438C3.95 10.4075 2.55 11.2834 1.25 12.5199V12.4684L0.5 13.2927C0.5 13.3443 0.450009 13.3443 0.400009 13.3958L0.25 13.5504L0.300003 13.7564C0.350003 14.0141 0.45 14.2717 0.5 14.5293L0.800003 15.3536L1.3 14.6839C1.35 14.5808 1.45 14.5293 1.5 14.4262C2.55 13.4473 4 12.0562 6.05 11.4895Z" fill="#121212"/>
<path d="M1.20001 10.5621C2.35001 9.32554 3.65 8.5527 5.05 8.14052C6.4 7.77987 7.85 7.83139 9.3 8.39814C13.8 10.0984 17.7 7.31617 19.4 5.82202L20.05 5.15224L20.3 4.94614L20.1 4.63702C19.95 4.48245 19.85 4.27636 19.7 4.07027L19.4 3.65808L19.05 4.01874C19 4.07027 18.9 4.17331 18.85 4.22483C16.75 6.28572 13.5 8.39814 9.8 6.95552C8.05 6.28573 6.25001 6.18268 4.60001 6.64638C3.55001 6.95552 2.55 7.47074 1.55 8.14052L0.5 9.01641C0.4 9.11945 0.35 9.17098 0.25 9.27402L0.150009 9.37706V9.53163C0.100009 9.89229 0.100003 10.2529 0.0500031 10.5621L0 11.8501L0.850006 10.9227C0.950006 10.8197 1.05001 10.6651 1.20001 10.5621Z" fill="#121212"/>
<path d="M14.3499 20.5573L14.2499 20.8665L14.3499 20.5573C14.1999 20.5058 14.1 20.4543 13.95 20.4028C12.2 19.733 10.3999 19.6299 8.74994 20.0936C8.39994 20.1967 8.04995 20.2997 7.69995 20.4543L6.49994 21.021L6.19995 21.1756L7.19995 21.5362C7.49995 21.6393 7.79995 21.7423 8.09995 21.8454L8.24994 21.8969L8.39995 21.8454C8.54995 21.7939 8.69995 21.6908 8.84995 21.6908C8.94995 21.6908 9.04995 21.6393 9.14995 21.5878C10.3499 21.2786 11.6499 21.2786 13.0499 21.7423C13.1999 21.7939 13.3 21.8454 13.45 21.8969L13.7 21.9999L13.8499 21.9484C14.1999 21.8454 14.5999 21.7423 14.8999 21.5878L16.2999 21.0725L14.8499 20.7119C14.6999 20.6604 14.4999 20.6088 14.3499 20.5573Z" fill="#121212"/>
<path d="M21.9999 9.89258L21.2499 10.6654C21.1499 10.7685 21.0499 10.8715 20.9499 10.9745C18.8999 12.9839 15.5999 15.1478 11.8999 13.7052C10.1499 13.0354 8.34991 12.9324 6.69991 13.3961C5.14991 13.8598 3.74989 14.6842 2.49989 15.9207L1.8499 16.642L1.6499 16.8996L1.8499 17.2087C1.9999 17.4148 2.09991 17.5694 2.19991 17.7755L2.49989 18.2392L2.8499 17.7755C2.8999 17.724 2.9999 17.6209 3.0499 17.5694C4.2499 16.2298 5.5499 15.4055 7.0499 14.9933C8.3999 14.6326 9.8499 14.6841 11.2999 15.2509C12.5499 15.7146 13.8499 15.8692 15.1499 15.7146C17.4499 15.457 19.7499 14.1174 21.4499 12.6233C21.5499 12.5202 21.6499 12.4687 21.7499 12.3657L21.8999 12.2111V12.0565C21.8999 11.7474 21.9499 11.3867 21.9499 11.0776L21.9999 9.89258Z" fill="#121212"/>
<path d="M3.00009 5.15259L2.8501 4.84345L3.00009 5.15259C3.30009 4.99802 3.6501 4.89497 3.9501 4.79193C5.3001 4.43127 6.7501 4.4828 8.2001 5.04954C9.1501 5.4102 10.1001 5.56476 11.1501 5.56476C13.2501 5.56476 15.3501 4.79193 17.3001 3.29779L18.0501 2.67951L18.3001 2.47343L17.8501 2.11276C17.7001 1.9582 17.5001 1.80364 17.3001 1.70059L17.0001 1.49451L16.7501 1.70059C16.6501 1.75212 16.6001 1.85516 16.5001 1.90668C13.8501 3.96757 11.2001 4.53432 8.7001 3.5554C6.9001 2.88561 5.10009 2.73104 3.30009 3.29779C3.15009 3.34931 3.00009 3.40082 2.80009 3.45235L2.7001 3.50387L2.55009 3.65843C2.55009 3.70995 2.5001 3.70996 2.4501 3.76148C2.2501 4.07062 2.00009 4.32823 1.80009 4.63737L0.850098 6.13151L2.4001 5.30715C2.6501 5.30715 2.85009 5.20411 3.00009 5.15259Z" fill="#121212"/>
<path d="M7.10001 1.64889L7.25 1.70041C7.9 1.95802 8.90001 2.21563 10.15 2.21563C11.45 2.21563 12.7 1.9065 13.95 1.39127L15.5 0.618441L14.45 0.257794C14.15 0.15475 13.85 0.0517054 13.5 0.000183105H13.35L13.2 0.0516928C13.05 0.103215 12.9 0.206272 12.75 0.257794C11.25 0.824539 9.75 0.927584 8.3 0.515406C8.15 0.463884 8.00001 0.412352 7.85001 0.36083L7.70001 0.309304L7.55 0.36083C7.25 0.463874 6.95001 0.566925 6.65001 0.721492L5.5 1.23671L6.70001 1.59736C6.80001 1.54584 6.95001 1.59736 7.10001 1.64889Z" fill="#121212"/>
</svg>
